<svg viewBox="0 0 129 62" fill="black" xmlns="http://www.w3.org/2000/svg">
<path fill-rule="evenodd" clip-rule="evenodd" d="M17.3292 53.1969L11.8059 61.9936L7.84577 62L6.40427 53.2146L9.09704 53.2111L10.0671 60.3927L14.414 53.2019L17.3292 53.1969Z" />
<path fill-rule="evenodd" clip-rule="evenodd" d="M22.6798 52.2927L19.943 52.2969L20.406 50.2866L23.1435 50.2824L22.6798 52.2927ZM20.4298 61.9767L17.6929 61.9809L19.7227 53.1899L22.4595 53.1856L20.4298 61.9767Z" />
<path fill-rule="evenodd" clip-rule="evenodd" d="M33.5789 61.9527L26.5029 61.9647C25.9839 61.9654 25.5502 61.9464 25.2012 61.9061C24.8529 61.8652 24.5711 61.7953 24.3556 61.6936C24.1402 61.5934 23.9842 61.4544 23.8877 61.2786C23.7905 61.1028 23.7422 60.8727 23.7415 60.5889C23.7408 60.2776 23.7919 59.9127 23.8954 59.4927L24.0052 59.0056C24.1374 58.4776 24.285 58.0513 24.448 57.7266C24.6102 57.4012 24.8326 57.1506 25.1138 56.9748C25.3957 56.7984 25.7475 56.6791 26.1699 56.6176C26.5924 56.5562 27.1232 56.5245 27.7611 56.5238L30.9421 56.5181L30.4574 58.6294L27.4981 58.6343C27.231 58.6351 27.0162 58.7127 26.8533 58.8687C26.6903 59.0247 26.6092 59.1976 26.6092 59.3875C26.6099 59.6981 26.8106 59.8534 27.2107 59.8527L31.3275 59.8464L32.0996 56.5167C32.1731 56.1786 32.2094 55.9548 32.2094 55.8468C32.2087 55.6167 32.1234 55.4678 31.9527 55.4007C31.7821 55.3329 31.4373 55.2998 30.9176 55.3005L25.311 55.3096L25.7964 53.1984L32.427 53.1878C32.9459 53.1864 33.3796 53.2068 33.7279 53.2464C34.0769 53.2866 34.3588 53.3572 34.5742 53.4581C34.7896 53.5598 34.9456 53.6981 35.0421 53.8739C35.1386 54.0489 35.1876 54.2791 35.1883 54.5635C35.189 54.8748 35.1379 55.2405 35.0351 55.6591L33.5789 61.9527Z" />
<path fill-rule="evenodd" clip-rule="evenodd" d="M45.4019 55.2751L42.1979 55.28C41.8566 55.2807 41.5859 55.2955 41.3859 55.3224C41.1858 55.3499 41.0264 55.4078 40.9081 55.496C40.7892 55.5842 40.6969 55.7092 40.6305 55.8715C40.564 56.0346 40.5011 56.2442 40.443 56.5012L39.1855 61.9421L36.4486 61.9464L38.4777 53.1758L41.2145 53.1715L40.9718 54.2678C41.4754 53.5358 42.1566 53.1701 43.0169 53.1687L45.8873 53.1638L45.4019 55.2751Z" />
<path fill-rule="evenodd" clip-rule="evenodd" d="M57.013 58.5814L50.6497 58.592L51.1351 56.48L54.8511 56.4751C54.9393 56.0953 54.9833 55.8864 54.9833 55.8454C54.9826 55.4395 54.6259 55.2369 53.9139 55.2383L51.7331 55.2412C51.4365 55.2419 51.1883 55.256 50.9882 55.2835C50.7875 55.3104 50.6252 55.3682 50.4986 55.4565C50.3734 55.5447 50.2692 55.6704 50.1881 55.8327C50.1069 55.9951 50.037 56.2118 49.9783 56.4821L49.4929 58.5941C49.4341 58.8645 49.4047 59.0812 49.4047 59.2428C49.4054 59.4736 49.4915 59.6254 49.6621 59.6995C49.8328 59.7736 50.1776 59.8104 50.6966 59.8096L56.3038 59.8005L55.8177 61.8913L49.1655 61.9026C48.6312 61.9033 48.1863 61.8835 47.8303 61.8433C47.4743 61.8031 47.1925 61.7296 46.9847 61.6216C46.777 61.5136 46.628 61.3753 46.5385 61.2066C46.449 61.0372 46.4042 60.8176 46.4035 60.5473C46.4035 60.3983 46.4182 60.2325 46.4476 60.0496C46.4769 59.8668 46.521 59.6607 46.5798 59.4306L47.4401 55.6344C47.6457 54.7414 48.0416 54.1005 48.627 53.7151C49.2117 53.3282 50.0678 53.1334 51.1952 53.132L55.1113 53.1249C56.1346 53.1235 56.8473 53.2174 57.2473 53.4066C57.6488 53.5944 57.8495 53.96 57.8509 54.5014C57.8516 54.812 57.7999 55.184 57.6971 55.6181L57.013 58.5814Z" />
<path fill-rule="evenodd" clip-rule="evenodd" d="M69.4753 61.8878L66.7609 61.8913L68.0184 56.4504C68.0919 56.1122 68.1289 55.8885 68.1283 55.7805C68.1283 55.5511 68.0422 55.4021 67.8716 55.3344C67.7009 55.268 67.3561 55.2341 66.8364 55.2355L64.6563 55.2391C64.315 55.2391 64.045 55.2532 63.8443 55.28C63.6443 55.3075 63.4848 55.3654 63.3666 55.4536C63.2477 55.5419 63.1554 55.6668 63.0889 55.8292C63.0225 55.9922 62.9602 56.2019 62.9008 56.4588L61.6439 61.8998L58.9071 61.9047L60.9368 53.1341L63.6729 53.1292L63.4309 54.2254C63.9338 53.4941 64.6151 53.1278 65.4753 53.1264L68.3458 53.1221C69.369 53.1207 70.0817 53.2111 70.4818 53.3925C70.8826 53.5746 71.084 53.9431 71.0854 54.4979C71.0854 54.8085 71.0343 55.1741 70.9315 55.5941L69.4753 61.8878Z" />
<path fill-rule="evenodd" clip-rule="evenodd" d="M77.4103 61.8715L75.2078 61.8751C74.1845 61.8765 73.4725 61.7868 73.0718 61.6047C72.671 61.4226 72.4696 61.0541 72.4689 60.5C72.4682 60.188 72.5192 59.8231 72.6227 59.4031L74.7399 50.2068L77.4767 50.2019L76.7934 53.1052L79.4407 53.1009L78.9329 55.2122L76.3304 55.2165L75.5575 58.5461C75.4848 58.8849 75.4477 59.108 75.4477 59.216C75.4484 59.4461 75.5337 59.5944 75.7044 59.6621C75.8751 59.7299 76.2199 59.7631 76.7388 59.7624L77.8964 59.7602L77.4103 61.8715Z" />
<path fill-rule="evenodd" clip-rule="evenodd" d="M93.3137 61.8384L87.6176 61.8475C87.0686 61.8482 86.6168 61.8256 86.2608 61.7784C85.9041 61.7318 85.6222 61.6576 85.4145 61.5567C85.2067 61.4558 85.062 61.3174 84.9801 61.1416C84.8983 60.9659 84.8563 60.7421 84.8563 60.4718C84.8556 60.1605 84.9067 59.7955 85.0095 59.3755L85.8915 55.5588C86.0244 55.0315 86.1761 54.6045 86.3461 54.2798C86.5154 53.9544 86.7448 53.7045 87.0336 53.528C87.3225 53.3515 87.675 53.2322 88.0898 53.1708C88.5052 53.1094 89.0242 53.0776 89.6481 53.0769L95.3435 53.0678L94.8581 55.1798L90.1852 55.1868C89.8446 55.1868 89.5739 55.2016 89.3739 55.2285C89.1732 55.256 89.0137 55.3139 88.8955 55.4021C88.7766 55.4904 88.685 55.6153 88.6185 55.7776C88.5514 55.9407 88.4891 56.1504 88.4297 56.4073L87.945 58.5186C87.8715 58.8574 87.8352 59.0805 87.8352 59.1885C87.8359 59.4179 87.9212 59.5668 88.0919 59.6346C88.2625 59.7024 88.6073 59.7355 89.1263 59.7348L93.7991 59.7271L93.3137 61.8384Z" />
<path fill-rule="evenodd" clip-rule="evenodd" d="M104.178 58.4889L104.663 56.3784C104.737 56.0395 104.773 55.8165 104.773 55.7085C104.773 55.4776 104.687 55.3294 104.516 55.2624C104.345 55.1946 104 55.1614 103.481 55.1621L101.301 55.1656C100.989 55.1664 100.733 55.1769 100.533 55.1974C100.333 55.2179 100.169 55.2694 100.044 55.3506C99.9184 55.4318 99.8184 55.5539 99.7442 55.7155C99.6708 55.8786 99.6043 56.1016 99.5456 56.3861L99.0602 58.4974C98.9867 58.8355 98.9497 59.0593 98.9504 59.1673C98.9504 59.3974 99.0357 59.5464 99.2071 59.6134C99.3777 59.6812 99.7225 59.7136 100.242 59.7129L102.422 59.7101C102.764 59.7094 103.034 59.6953 103.234 59.6678C103.434 59.6409 103.594 59.5831 103.712 59.4948C103.831 59.4066 103.923 59.2845 103.99 59.1285C104.056 58.9732 104.119 58.76 104.178 58.4889ZM106.694 59.3374C106.576 59.8654 106.432 60.2882 106.261 60.6066C106.092 60.9249 105.87 61.1755 105.596 61.3591C105.322 61.5419 104.97 61.664 104.54 61.7254C104.11 61.7875 103.576 61.8186 102.938 61.82L98.7112 61.8264C97.6872 61.8285 96.9752 61.7381 96.5744 61.556C96.1737 61.3739 95.9729 61.0061 95.9715 60.4506C95.9708 60.1393 96.0219 59.7736 96.1247 59.3551L97.0074 55.5384C97.1396 55.0096 97.2906 54.5833 97.4606 54.2586C97.6313 53.9339 97.853 53.6826 98.1272 53.5061C98.4013 53.3296 98.7489 53.2118 99.1721 53.1496C99.5945 53.0882 100.117 53.0572 100.74 53.0558L104.968 53.0494C105.517 53.048 105.969 53.0706 106.325 53.1179C106.681 53.1645 106.963 53.2393 107.171 53.3395C107.379 53.4412 107.524 53.5831 107.606 53.7652C107.688 53.9473 107.729 54.1675 107.73 54.4245C107.73 54.7358 107.679 55.1007 107.576 55.5207L106.694 59.3374Z" />
<path fill-rule="evenodd" clip-rule="evenodd" d="M124.779 61.7812L122.065 61.7861L123.322 56.3445C123.381 56.0741 123.411 55.8511 123.411 55.6753C123.41 55.4452 123.325 55.2962 123.154 55.2292C122.983 55.1614 122.638 55.1282 122.119 55.1289L121.051 55.1304C120.71 55.1311 120.439 55.1452 120.239 55.1727C120.039 55.2002 119.879 55.2581 119.76 55.3464C119.642 55.4339 119.55 55.5595 119.483 55.7219C119.417 55.8849 119.354 56.0939 119.295 56.3515L118.038 61.7925L115.301 61.7967L116.691 55.6852C116.691 55.4558 116.605 55.3068 116.434 55.2398C116.263 55.1727 115.918 55.1388 115.399 55.1402L114.332 55.1416C113.99 55.1424 113.72 55.1558 113.519 55.1833C113.319 55.2115 113.16 55.2687 113.042 55.3569C112.923 55.4452 112.83 55.5701 112.764 55.7325C112.698 55.8948 112.635 56.1052 112.577 56.3621L111.319 61.8031L108.582 61.8073L110.611 53.0367L113.348 53.0332L113.106 54.1287C113.608 53.3974 114.29 53.0311 115.15 53.0296L116.908 53.0268C117.887 53.0254 118.566 53.0981 118.944 53.2464C119.323 53.3946 119.55 53.6649 119.625 54.0574C119.773 53.7461 120.061 53.4955 120.49 53.3049C120.921 53.1151 121.381 53.0198 121.87 53.0191L123.628 53.0162C124.651 53.0141 125.367 53.1045 125.775 53.2866C126.184 53.4687 126.388 53.8365 126.389 54.3913C126.39 54.6489 126.331 55.0139 126.214 55.4875L124.779 61.7812Z" />
<path fill-rule="evenodd" clip-rule="evenodd" d="M82.3237 61.8998L79.7736 61.9047L80.2059 59.7179L82.7553 59.7129L82.3237 61.8998Z" />
<path fill-rule="evenodd" clip-rule="evenodd" d="M80.6193 0.0814002L80.3958 1.38725C76.1065 1.95843 72.7198 3.12977 71.0502 7.37776C70.6178 8.47735 69.9479 10.431 69.2849 13.3172L64.8853 32.3235C64.3369 34.7448 64.0686 36.3169 64.0707 37.0516C64.0854 42.5682 74.5417 41.2244 77.5519 38.9817C79.2173 37.7421 81.7412 34.969 84.975 30.483L106.875 0.0131068L111.984 0L112.079 34.8993C112.302 39.5743 115.964 41.0629 119.673 41.054L128.995 41.0291L129 42.7054L95.8385 42.7903L96.3108 41.1768C99.8449 40.6311 104.169 38.8576 104.156 33.819L104.092 8.95747L90.4364 28.7115C86.7179 33.968 81.8181 40.0013 91.8755 41.1885L91.3914 42.802L46.1306 42.9193L46.542 41.5438C53.7744 41.2651 55.4167 38.1139 56.9669 31.5274L61.9477 10.3689C62.3494 8.66015 62.5981 7.30946 62.6072 6.33404C62.6631 0.306285 52.7286 1.54729 49.4097 4.01896C47.745 5.25859 45.2217 8.03103 41.9873 12.517L20.0876 42.9869L14.9789 43L14.8832 8.10139C14.6603 3.4264 10.9984 1.93705 7.28966 1.94602L0.00489004 1.96533L0 0.28904L31.1237 0.209709L30.6515 1.82323C27.1174 2.36888 22.7932 4.14313 22.8065 9.18029L22.8714 34.0425L36.5258 14.2892C40.2443 9.03197 45.1442 2.9987 35.0867 1.81219L35.5709 0.197982L80.6193 0.0814002Z" />
</svg>
